<svg width="83" height="90" viewBox="0 0 83 90" fill="none" xmlns="http://www.w3.org/2000/svg">
<g id="Calque_2">
<path id="Vector" d="M78.8083 1.43833C75.2337 -0.173895 71.0153 1.38553 69.3862 4.92678L41.6466 65.1739L18.4953 14.8852H41.6466C45.5769 14.8852 48.7602 11.7347 48.7602 7.84497C48.7602 3.95522 45.5769 0.804703 41.6466 0.804703H7.43711C7.41221 0.804703 7.39087 0.808223 7.36597 0.808223C7.20947 0.808223 7.05297 0.818783 6.89647 0.832864C6.81467 0.839904 6.7293 0.843424 6.6475 0.850465C6.51234 0.864545 6.37718 0.889186 6.24202 0.910307C6.13887 0.927908 6.03217 0.941988 5.92902 0.966629C5.82587 0.98775 5.72272 1.01943 5.62313 1.04407C5.49153 1.07927 5.35993 1.11447 5.22832 1.1532C5.15007 1.17784 5.07182 1.20952 4.99357 1.23768C4.84419 1.29048 4.69836 1.3468 4.55609 1.41017C4.53475 1.42073 4.50985 1.42777 4.48851 1.43481C4.43515 1.45945 4.38536 1.49113 4.33201 1.51577C4.19685 1.58265 4.06169 1.64602 3.93364 1.71994C3.84472 1.76922 3.7558 1.82554 3.67044 1.87834C3.56729 1.94171 3.46058 2.00859 3.36099 2.07899C3.25785 2.14939 3.16181 2.22332 3.06578 2.29724C2.98397 2.3606 2.90572 2.42045 2.82747 2.48733C2.72432 2.57533 2.62473 2.66333 2.5287 2.75486C2.46112 2.81822 2.39354 2.88158 2.32952 2.94847C2.23704 3.04351 2.14812 3.14207 2.0592 3.24416C1.99517 3.31808 1.93115 3.392 1.87069 3.46945C1.79244 3.56449 1.7213 3.66305 1.64661 3.76514C1.58258 3.85666 1.51856 3.94466 1.4581 4.03971C1.39763 4.13123 1.34428 4.22275 1.28737 4.31428C1.22334 4.4234 1.16288 4.53253 1.10597 4.64165C1.06329 4.72613 1.02061 4.81062 0.981481 4.89862C0.924572 5.02183 0.87122 5.14503 0.821424 5.27175C0.789413 5.35624 0.757401 5.44072 0.728947 5.5252C0.682708 5.65193 0.640026 5.77865 0.604458 5.91242C0.576003 6.00746 0.554663 6.10251 0.529765 6.20107C0.50131 6.32076 0.472856 6.44044 0.451515 6.56364C0.430174 6.68333 0.41239 6.80301 0.394606 6.9227C0.380379 7.02478 0.366151 7.12687 0.359038 7.22895C0.344811 7.3768 0.341253 7.52464 0.337696 7.67249C0.337696 7.73233 0.327026 7.78865 0.327026 7.84849C0.327026 7.87314 0.330583 7.89426 0.330583 7.9189C0.330583 8.07378 0.341254 8.22867 0.355481 8.38355C0.362595 8.46452 0.366151 8.549 0.373265 8.62996C0.387492 8.76373 0.41239 8.89749 0.433731 9.03126C0.451515 9.13334 0.465742 9.23895 0.49064 9.33751C0.511981 9.4396 0.543993 9.54168 0.56889 9.64376C0.604458 9.77401 0.63647 9.90425 0.679151 10.031C0.704049 10.1084 0.736061 10.1859 0.764515 10.2668C0.817867 10.4112 0.874776 10.5555 0.935242 10.6963C0.945913 10.7174 0.953026 10.742 0.963697 10.7632L35.1768 85.0732C35.191 85.1084 35.2123 85.1401 35.2265 85.1718C35.255 85.2316 35.2835 85.288 35.3155 85.3478C35.383 85.4816 35.4542 85.6083 35.5289 85.735C35.5609 85.7878 35.5929 85.8441 35.6249 85.8969C35.7281 86.0589 35.8348 86.2173 35.9486 86.3686C35.9593 86.3792 35.9664 86.3933 35.9735 86.4038C36.1015 86.5693 36.2331 86.7277 36.3754 86.8791C36.411 86.9178 36.4501 86.9565 36.4892 86.9952C36.5995 87.1114 36.7133 87.2205 36.8307 87.3296C36.8734 87.3684 36.916 87.4071 36.9587 87.4458C37.1152 87.5831 37.2753 87.7133 37.4424 87.833C37.4602 87.8471 37.478 87.8577 37.4958 87.8682C37.6523 87.9809 37.8124 88.0829 37.9795 88.1815C38.0293 88.2097 38.0791 88.2378 38.1289 88.266C38.2996 88.361 38.4739 88.4526 38.6518 88.5335C38.666 88.5406 38.6802 88.5511 38.698 88.5582C38.7051 88.5617 38.7087 88.5617 38.7158 88.5652C38.7407 88.5758 38.7691 88.5863 38.794 88.5969C38.9114 88.6462 39.0252 88.6954 39.1426 88.7377C39.1817 88.7518 39.2209 88.7658 39.2635 88.7799C39.3774 88.8222 39.4947 88.8574 39.6085 88.8926C39.6406 88.9031 39.669 88.9102 39.701 88.9207C40.0069 89.0052 40.3128 89.0721 40.6222 89.1179C40.6471 89.1214 40.672 89.1249 40.6969 89.1284C40.8285 89.146 40.9601 89.1601 41.0917 89.1707C41.1238 89.1742 41.1558 89.1777 41.1878 89.1777C41.3407 89.1883 41.4937 89.1953 41.6466 89.1953H41.6502H41.6537C41.8067 89.1953 41.9596 89.1883 42.1125 89.1777C42.1446 89.1742 42.1766 89.1742 42.2086 89.1707C42.3402 89.1601 42.4718 89.146 42.6034 89.1284C42.6283 89.1249 42.6532 89.1214 42.6745 89.1179C42.984 89.0721 43.2899 89.0087 43.5957 88.9207C43.6242 88.9137 43.6527 88.9031 43.6811 88.8961C43.7985 88.8609 43.9194 88.8222 44.0368 88.7799C44.0724 88.7658 44.1115 88.7553 44.1471 88.7412C44.268 88.6954 44.3889 88.6462 44.5098 88.5934C44.5312 88.5828 44.5525 88.5758 44.5774 88.5652C44.5845 88.5617 44.5917 88.5582 44.5988 88.5582C44.6166 88.5511 44.6343 88.5406 44.6521 88.53C44.8264 88.449 44.9971 88.361 45.1643 88.266C45.2177 88.2378 45.2674 88.2062 45.3172 88.178C45.4773 88.0829 45.6338 87.9809 45.7903 87.8717C45.8116 87.8577 45.833 87.8436 45.8543 87.8295C46.0215 87.7098 46.1815 87.5796 46.3345 87.4458C46.3807 87.4071 46.4234 87.3648 46.4697 87.3226C46.5835 87.217 46.6973 87.1079 46.8075 86.9952C46.8467 86.953 46.8858 86.9143 46.9249 86.872C47.0636 86.7206 47.1988 86.5622 47.3233 86.3968C47.334 86.3827 47.3446 86.3686 47.3517 86.3546C47.4656 86.2067 47.5687 86.0483 47.6719 85.8899C47.7074 85.8371 47.7359 85.7808 47.7715 85.728C47.8461 85.6012 47.9173 85.4745 47.9849 85.3408C48.0133 85.2809 48.0453 85.2246 48.0738 85.1648C48.0916 85.1296 48.1093 85.1014 48.1236 85.0662L82.3366 10.7561C83.9621 7.22543 82.3829 3.05055 78.8083 1.43833Z" fill="url(#paint0_linear_182_124)"/>
</g>
<defs>
<linearGradient id="paint0_linear_182_124" x1="41.6516" y1="0.802597" x2="41.6516" y2="89.1953" gradientUnits="userSpaceOnUse">
<stop stop-color="#15A36E"/>
<stop offset="1" stop-color="#96E6B3"/>
</linearGradient>
</defs>
</svg>
