<svg width="21" height="20" viewBox="0 0 21 20" fill="none" xmlns="http://www.w3.org/2000/svg">
<g id="convertir 1">
<g id="01">
<path id="Vector" d="M7.04133 10.2083H4.79198C2.57437 10.2083 1.54166 11.2411 1.54166 13.4587V15.708C1.54166 17.9256 2.57437 18.9583 4.79198 18.9583H7.04133C9.25894 18.9583 10.2917 17.9256 10.2917 15.708V13.4587C10.2917 11.2411 9.25894 10.2083 7.04133 10.2083ZM9.04166 15.708C9.04166 17.2412 8.57453 17.7083 7.04133 17.7083H4.79198C3.25878 17.7083 2.79166 17.2412 2.79166 15.708V13.4587C2.79166 11.9255 3.25878 11.4583 4.79198 11.4583H7.04133C8.57453 11.4583 9.04166 11.9255 9.04166 13.4587V15.708ZM19.4583 12.5C19.4564 14.2123 18.7754 15.8539 17.5646 17.0646C16.3539 18.2754 14.7123 18.9564 13 18.9583C12.8895 18.9582 12.7809 18.9288 12.6854 18.8731C12.59 18.8173 12.511 18.7373 12.4565 18.6411C12.402 18.545 12.3739 18.4361 12.3752 18.3255C12.3765 18.215 12.407 18.1068 12.4637 18.0119L13.3385 16.5536C13.4241 16.4119 13.5623 16.31 13.7228 16.2701C13.8834 16.2302 14.0533 16.2555 14.1952 16.3406C14.3371 16.4256 14.4395 16.5635 14.48 16.7239C14.5205 16.8843 14.4957 17.0542 14.4111 17.1965L14.1857 17.5724C15.3294 17.3033 16.3487 16.6561 17.0788 15.7355C17.8088 14.8149 18.2068 13.6749 18.2083 12.5C18.2083 12.3342 18.2742 12.1753 18.3914 12.0581C18.5086 11.9409 18.6676 11.875 18.8333 11.875C18.9991 11.875 19.1581 11.9409 19.2753 12.0581C19.3925 12.1753 19.4583 12.3342 19.4583 12.5ZM1.54166 7.50001C1.54357 5.78774 2.22462 4.14615 3.43537 2.93539C4.64613 1.72463 6.28772 1.04359 7.99999 1.04167C8.11053 1.04181 8.21906 1.07124 8.31453 1.12696C8.41 1.18267 8.48901 1.26269 8.5435 1.35887C8.598 1.45504 8.62604 1.56394 8.62477 1.67447C8.6235 1.785 8.59297 1.89323 8.53628 1.98812L7.66145 3.44646C7.5759 3.58808 7.4377 3.69001 7.27714 3.72994C7.11657 3.76986 6.94672 3.74452 6.80481 3.65945C6.6629 3.57439 6.56048 3.43655 6.52 3.27612C6.47953 3.11569 6.50429 2.94576 6.58886 2.80356L6.81428 2.42758C5.67062 2.69672 4.65125 3.34396 3.92121 4.26453C3.19117 5.18509 2.79317 6.3251 2.79166 7.50001C2.79166 7.66577 2.72581 7.82474 2.6086 7.94195C2.49139 8.05916 2.33242 8.12501 2.16666 8.12501C2.0009 8.12501 1.84193 8.05916 1.72471 7.94195C1.6075 7.82474 1.54166 7.66577 1.54166 7.50001ZM19.4583 5.41667C19.4583 4.55138 19.2017 3.70552 18.721 2.98605C18.2403 2.26659 17.557 1.70583 16.7576 1.3747C15.9581 1.04357 15.0785 0.956928 14.2298 1.12574C13.3811 1.29455 12.6016 1.71123 11.9897 2.32308C11.3779 2.93494 10.9612 3.71449 10.7924 4.56315C10.6236 5.41182 10.7102 6.29149 11.0414 7.09091C11.3725 7.89034 11.9332 8.57362 12.6527 9.05435C13.3722 9.53508 14.218 9.79167 15.0833 9.79167C16.2432 9.79027 17.3552 9.32888 18.1754 8.50871C18.9955 7.68855 19.4569 6.57656 19.4583 5.41667ZM11.9583 5.41667C11.9583 4.79861 12.1416 4.19442 12.485 3.68052C12.8284 3.16661 13.3164 2.76607 13.8874 2.52955C14.4585 2.29303 15.0868 2.23114 15.693 2.35172C16.2992 2.4723 16.856 2.76993 17.293 3.20696C17.7301 3.644 18.0277 4.20083 18.1483 4.80702C18.2689 5.41321 18.207 6.04154 17.9704 6.61256C17.7339 7.18358 17.3334 7.67164 16.8195 8.01502C16.3056 8.3584 15.7014 8.54167 15.0833 8.54167C14.2548 8.54063 13.4606 8.21106 12.8748 7.62523C12.2889 7.0394 11.9594 6.24515 11.9583 5.41667Z" fill="#818181"/>
</g>
</g>
</svg>
