<svg width="21" height="20" viewBox="0 0 21 20" fill="none" xmlns="http://www.w3.org/2000/svg">
<g id="layout 1">
<g id="Line">
<path id="Vector" d="M3.41668 6.66667H7.58334C8.13588 6.66667 8.66578 6.44718 9.05648 6.05648C9.44718 5.66578 9.66668 5.13587 9.66668 4.58334V2.91667C9.66668 2.36414 9.44718 1.83423 9.05648 1.44353C8.66578 1.05283 8.13588 0.833336 7.58334 0.833336H3.41668C2.86414 0.833336 2.33424 1.05283 1.94354 1.44353C1.55284 1.83423 1.33334 2.36414 1.33334 2.91667V4.58334C1.33334 5.13587 1.55284 5.66578 1.94354 6.05648C2.33424 6.44718 2.86414 6.66667 3.41668 6.66667ZM2.16668 2.91667C2.16668 2.58515 2.29837 2.26721 2.53279 2.03279C2.76721 1.79837 3.08516 1.66667 3.41668 1.66667H7.58334C7.91486 1.66667 8.23281 1.79837 8.46723 2.03279C8.70165 2.26721 8.83334 2.58515 8.83334 2.91667V4.58334C8.83334 4.91486 8.70165 5.2328 8.46723 5.46722C8.23281 5.70164 7.91486 5.83334 7.58334 5.83334H3.41668C3.08516 5.83334 2.76721 5.70164 2.53279 5.46722C2.29837 5.2328 2.16668 4.91486 2.16668 4.58334V2.91667Z" fill="#15A36E"/>
<path id="Vector_2" d="M17.5833 13.3333H13.4167C12.8641 13.3333 12.3342 13.5528 11.9435 13.9435C11.5528 14.3342 11.3333 14.8641 11.3333 15.4167V17.0833C11.3333 17.6359 11.5528 18.1658 11.9435 18.5565C12.3342 18.9472 12.8641 19.1667 13.4167 19.1667H17.5833C18.1359 19.1667 18.6658 18.9472 19.0565 18.5565C19.4472 18.1658 19.6667 17.6359 19.6667 17.0833V15.4167C19.6667 14.8641 19.4472 14.3342 19.0565 13.9435C18.6658 13.5528 18.1359 13.3333 17.5833 13.3333ZM18.8333 17.0833C18.8333 17.4149 18.7016 17.7328 18.4672 17.9672C18.2328 18.2016 17.9149 18.3333 17.5833 18.3333H13.4167C13.0852 18.3333 12.7672 18.2016 12.5328 17.9672C12.2984 17.7328 12.1667 17.4149 12.1667 17.0833V15.4167C12.1667 15.0851 12.2984 14.7672 12.5328 14.5328C12.7672 14.2984 13.0852 14.1667 13.4167 14.1667H17.5833C17.9149 14.1667 18.2328 14.2984 18.4672 14.5328C18.7016 14.7672 18.8333 15.0851 18.8333 15.4167V17.0833Z" fill="#15A36E"/>
<path id="Vector_3" d="M3.41668 19.1667H7.58334C8.13588 19.1667 8.66578 18.9472 9.05648 18.5565C9.44718 18.1658 9.66668 17.6359 9.66668 17.0833V9.58333C9.66668 9.0308 9.44718 8.5009 9.05648 8.11019C8.66578 7.71949 8.13588 7.5 7.58334 7.5H3.41668C2.86414 7.5 2.33424 7.71949 1.94354 8.11019C1.55284 8.5009 1.33334 9.0308 1.33334 9.58333V17.0833C1.33334 17.6359 1.55284 18.1658 1.94354 18.5565C2.33424 18.9472 2.86414 19.1667 3.41668 19.1667ZM2.16668 9.58333C2.16668 9.25181 2.29837 8.93387 2.53279 8.69945C2.76721 8.46503 3.08516 8.33333 3.41668 8.33333H7.58334C7.91486 8.33333 8.23281 8.46503 8.46723 8.69945C8.70165 8.93387 8.83334 9.25181 8.83334 9.58333V17.0833C8.83334 17.4149 8.70165 17.7328 8.46723 17.9672C8.23281 18.2016 7.91486 18.3333 7.58334 18.3333H3.41668C3.08516 18.3333 2.76721 18.2016 2.53279 17.9672C2.29837 17.7328 2.16668 17.4149 2.16668 17.0833V9.58333Z" fill="#15A36E"/>
<path id="Vector_4" d="M17.5833 0.833336H13.4167C12.8641 0.833336 12.3342 1.05283 11.9435 1.44353C11.5528 1.83423 11.3333 2.36414 11.3333 2.91667V10.4167C11.3333 10.9692 11.5528 11.4991 11.9435 11.8898C12.3342 12.2805 12.8641 12.5 13.4167 12.5H17.5833C18.1359 12.5 18.6658 12.2805 19.0565 11.8898C19.4472 11.4991 19.6667 10.9692 19.6667 10.4167V2.91667C19.6667 2.36414 19.4472 1.83423 19.0565 1.44353C18.6658 1.05283 18.1359 0.833336 17.5833 0.833336ZM18.8333 10.4167C18.8333 10.7482 18.7016 11.0661 18.4672 11.3006C18.2328 11.535 17.9149 11.6667 17.5833 11.6667H13.4167C13.0852 11.6667 12.7672 11.535 12.5328 11.3006C12.2984 11.0661 12.1667 10.7482 12.1667 10.4167V2.91667C12.1667 2.58515 12.2984 2.26721 12.5328 2.03279C12.7672 1.79837 13.0852 1.66667 13.4167 1.66667H17.5833C17.9149 1.66667 18.2328 1.79837 18.4672 2.03279C18.7016 2.26721 18.8333 2.58515 18.8333 2.91667V10.4167Z" fill="#15A36E"/>
</g>
</g>
</svg>
