<svg width="21" height="20" viewBox="0 0 21 20" fill="none" xmlns="http://www.w3.org/2000/svg">
<g id="exit-door">
<path id="Vector" d="M6.75 3.75C6.75 3.06062 7.31062 2.5 8 2.5H10.5C10.8456 2.5 11.125 2.78 11.125 3.125C11.125 3.47 10.8456 3.75 10.5 3.75H8V7.5C8 7.845 7.72062 8.125 7.375 8.125C7.02938 8.125 6.75 7.845 6.75 7.5V3.75Z" fill="#818181"/>
<path id="Vector_2" d="M8 12.5V16.25H10.5C10.8456 16.25 11.125 16.5294 11.125 16.875C11.125 17.2206 10.8456 17.5 10.5 17.5H8C7.31062 17.5 6.75 16.9394 6.75 16.25V12.5C6.75 12.1544 7.02938 11.875 7.375 11.875C7.72062 11.875 8 12.1544 8 12.5Z" fill="#818181"/>
<path id="Vector_3" d="M1.93313 10.4418C1.68875 10.1975 1.68875 9.80247 1.93313 9.5581L3.80813 7.6831C4.0525 7.43872 4.4475 7.43872 4.69188 7.6831C4.93625 7.92747 4.93625 8.32247 4.69188 8.56685L3.88375 9.37497H9.87501C10.2206 9.37497 10.5 9.65497 10.5 9.99997C10.5 10.345 10.2206 10.625 9.87501 10.625H3.88375L4.69188 11.4331C4.93625 11.6775 4.93625 12.0725 4.69188 12.3168C4.4475 12.5612 4.0525 12.5612 3.80813 12.3168L1.93313 10.4418Z" fill="#818181"/>
<path id="Vector_4" d="M14.875 9.375V10.625C14.875 10.9706 14.5956 11.25 14.25 11.25C13.9044 11.25 13.625 10.9706 13.625 10.625V9.375C13.625 9.03 13.9044 8.75 14.25 8.75C14.5956 8.75 14.875 9.03 14.875 9.375Z" fill="#818181"/>
<path id="Vector_5" d="M18.3644 2.93373L12.9588 1.2906C12.3588 1.10935 11.75 1.55748 11.75 2.18685V17.8087C11.75 18.4362 12.3562 18.8919 12.9637 18.7081L18.3638 17.0669C18.8938 16.9056 19.25 16.4244 19.25 15.8706V4.12935C19.25 3.57623 18.8944 3.0956 18.3644 2.93373ZM18 15.8706L13 17.3906V2.60935L18 4.12935V15.8706Z" fill="#818181"/>
</g>
</svg>
