<svg width="21" height="20" viewBox="0 0 21 20" fill="none" xmlns="http://www.w3.org/2000/svg">
<g id="group (1) 1">
<g id="Group">
<g id="ICON">
<g id="Group_2">
<path id="Vector" fill-rule="evenodd" clip-rule="evenodd" d="M15.2028 13.5431C16.3653 13.7222 17.8184 13.6241 18.6775 13.2553C19.2422 13.0128 19.5625 12.6403 19.5625 12.2097C19.5625 11.5363 19.3281 10.9138 18.9309 10.4122C18.8237 10.2772 18.6272 10.2541 18.4919 10.3613C18.3566 10.4684 18.3337 10.665 18.4409 10.8003C18.7522 11.1938 18.9375 11.6816 18.9375 12.2097C18.9375 12.3313 18.8534 12.4253 18.7372 12.5116C18.5575 12.6447 18.3016 12.7463 18.0037 12.8247C17.0625 13.0725 15.7209 13.0716 14.7859 12.82C14.5356 12.4619 14.2369 12.1372 13.8981 11.8538C14.0822 10.7094 15.1384 9.83813 16.4037 9.83813C16.9325 9.83813 17.4241 9.99 17.8316 10.2509C17.9766 10.3438 18.17 10.3016 18.2631 10.1563C18.3562 10.0109 18.3138 9.8175 18.1684 9.72469C17.9738 9.59969 17.7634 9.495 17.5406 9.41344C17.9072 9.095 18.1394 8.62563 18.1394 8.1025C18.1394 7.14438 17.3616 6.36657 16.4037 6.36657C16.1619 6.36657 15.9319 6.41625 15.7228 6.50563C15.3634 5.98844 14.8391 5.58156 14.2197 5.35469C14.5866 5.03625 14.8184 4.56688 14.8184 4.04375C14.8184 3.08563 14.0409 2.30813 13.0828 2.30813C12.125 2.30813 11.3472 3.08563 11.3472 4.04375C11.3472 4.56688 11.5791 5.03625 11.9459 5.35469C11.6122 5.47688 11.3059 5.65125 11.0384 5.86719C10.6831 5.79594 10.3169 5.79594 9.96156 5.86719C9.69406 5.65125 9.38781 5.47688 9.05406 5.35469C9.42094 5.03625 9.65281 4.56688 9.65281 4.04375C9.65281 3.08563 8.875 2.30813 7.91719 2.30813C6.95906 2.30813 6.18156 3.08563 6.18156 4.04375C6.18156 4.56688 6.41344 5.03625 6.78031 5.35469C6.16094 5.58188 5.63625 5.98844 5.27719 6.50563C5.06813 6.41625 4.83812 6.36657 4.59625 6.36657C3.63844 6.36657 2.86063 7.14438 2.86063 8.1025C2.86063 8.62563 3.0925 9.095 3.45938 9.41344C2.275 9.8475 1.4375 10.9394 1.4375 12.2097C1.4375 12.6403 1.75781 13.0128 2.3225 13.2553C3.18156 13.6241 4.63469 13.7222 5.79719 13.5431C5.51875 14.1416 5.36438 14.8025 5.36438 15.4969C5.36438 15.9759 5.62656 16.3931 6.10219 16.7259C6.24344 16.825 6.43844 16.7903 6.53719 16.6491C6.63625 16.5078 6.60187 16.3128 6.46031 16.2141C6.17562 16.0147 5.98938 15.7834 5.98938 15.4969C5.98938 13.1541 8.01531 11.2613 10.5 11.2613C12.9847 11.2613 15.0106 13.1541 15.0106 15.4969C15.0106 15.7494 14.8641 15.9594 14.635 16.1425C14.3494 16.3709 13.9416 16.5522 13.4609 16.6947C11.9297 17.1478 9.68281 17.1878 8.01969 16.8181C7.85125 16.7806 7.68406 16.8872 7.64656 17.0553C7.60938 17.2238 7.71562 17.3909 7.88406 17.4281C9.94375 17.8862 12.8462 17.74 14.4028 17.0084C15.1819 16.6425 15.6356 16.1181 15.6356 15.4969C15.6356 14.8025 15.4812 14.1416 15.2028 13.5431ZM7.10187 11.8538C6.91781 10.7094 5.86156 9.83813 4.59625 9.83813C3.20281 9.83813 2.0625 10.8956 2.0625 12.2097C2.0625 12.3313 2.14656 12.4253 2.26281 12.5116C2.4425 12.6447 2.69844 12.7463 2.99625 12.8247C3.9375 13.0725 5.27906 13.0716 6.21406 12.82C6.46438 12.4622 6.76312 12.1372 7.10187 11.8538ZM7.98063 9.57406C7.21594 9.57969 6.44625 9.48032 5.86844 9.28282C5.82563 9.32875 5.78062 9.37219 5.73344 9.41344C6.67375 9.75844 7.39562 10.5178 7.65312 11.4519C8.07469 11.1853 8.54063 10.9759 9.03813 10.8363C8.87281 10.7313 8.71656 10.6066 8.5725 10.4622C8.31063 10.2 8.11312 9.89719 7.98063 9.57406ZM15.2666 9.41344C15.2194 9.37219 15.1741 9.32875 15.1316 9.28282C14.5538 9.48032 13.7838 9.57969 13.0194 9.57438C12.8863 9.89813 12.6881 10.2019 12.425 10.4647C12.2816 10.6078 12.1263 10.7319 11.9619 10.8363C12.4594 10.9759 12.925 11.185 13.3469 11.4519C13.6044 10.5178 14.3262 9.75813 15.2666 9.41344ZM15.2016 6.85063C14.7475 6.20406 13.9669 5.77938 13.0828 5.77938C12.6012 5.77938 12.1503 5.90531 11.7662 6.12469C12.0041 6.24969 12.2275 6.41219 12.4275 6.6125C12.5494 6.73438 12.5491 6.9325 12.4272 7.05438C12.305 7.17625 12.1072 7.17594 11.9853 7.05406C11.1666 6.23438 9.83656 6.23344 9.01687 7.05219C8.19688 7.87063 8.19625 9.20094 9.01469 10.0206C9.83344 10.8403 11.1634 10.8413 11.9831 10.0225C12.6084 9.39813 12.7572 8.47625 12.4297 7.71C12.3619 7.55156 12.4353 7.3675 12.5941 7.29969C12.7525 7.23188 12.9362 7.30563 13.0041 7.46406C13.2053 7.93469 13.2681 8.45031 13.1925 8.94906C13.7659 8.94156 14.3328 8.87219 14.7878 8.7375C14.7106 8.54063 14.6678 8.32656 14.6678 8.1025C14.6678 7.61094 14.8728 7.16656 15.2016 6.85063ZM16.4037 6.99157C17.0166 6.99157 17.5144 7.48938 17.5144 8.1025C17.5144 8.71531 17.0166 9.21313 16.4037 9.21313C15.7906 9.21313 15.2928 8.71531 15.2928 8.1025C15.2928 7.48938 15.7906 6.99157 16.4037 6.99157ZM4.59625 6.99157C5.20937 6.99157 5.70719 7.48938 5.70719 8.1025C5.70719 8.71531 5.20937 9.21313 4.59625 9.21313C3.98344 9.21313 3.48563 8.71531 3.48563 8.1025C3.48563 7.48938 3.98344 6.99157 4.59625 6.99157ZM9.23375 6.12469C8.84969 5.90531 8.39875 5.77938 7.91719 5.77938C7.03313 5.77938 6.2525 6.20406 5.79844 6.85063C6.12719 7.16656 6.33219 7.61094 6.33219 8.1025C6.33219 8.32656 6.28969 8.54063 6.21219 8.7375C6.66719 8.87219 7.23406 8.94156 7.8075 8.94906C7.68188 8.12094 7.93781 7.24625 8.575 6.61C8.77437 6.41094 8.99687 6.24906 9.23375 6.12469ZM13.0828 2.93313C13.6959 2.93313 14.1934 3.43063 14.1934 4.04375C14.1934 4.65657 13.6959 5.15438 13.0828 5.15438C12.4697 5.15438 11.9722 4.65657 11.9722 4.04375C11.9722 3.43063 12.4697 2.93313 13.0828 2.93313ZM7.91719 2.93313C8.53031 2.93313 9.02781 3.43063 9.02781 4.04375C9.02781 4.65657 8.53031 5.15438 7.91719 5.15438C7.30406 5.15438 6.80656 4.65657 6.80656 4.04375C6.80656 3.43063 7.30406 2.93313 7.91719 2.93313Z" fill="#818181"/>
</g>
<g id="Group_3">
<path id="Vector_2" d="M7.0903 17.1875C7.26289 17.1875 7.4028 17.0476 7.4028 16.875C7.4028 16.7024 7.26289 16.5625 7.0903 16.5625C6.91771 16.5625 6.7778 16.7024 6.7778 16.875C6.7778 17.0476 6.91771 17.1875 7.0903 17.1875Z" fill="#818181"/>
</g>
</g>
</g>
</g>
</svg>
