<svg width="21" height="20" viewBox="0 0 21 20" fill="none" xmlns="http://www.w3.org/2000/svg">
<g id="list 1" clip-path="url(#clip0_278_168)">
<g id="Group">
<g id="Group_2">
<g id="Group_3">
<path id="Vector" d="M16.125 0H4.875C2.45875 0 0.5 1.95875 0.5 4.375V15.625C0.5 18.0413 2.45875 20 4.875 20H16.125C18.5413 20 20.5 18.0413 20.5 15.625V4.375C20.5 1.95875 18.5413 0 16.125 0ZM19.25 15.625C19.25 17.3509 17.8509 18.75 16.125 18.75H4.875C3.1491 18.75 1.75 17.3509 1.75 15.625V4.375C1.75 2.6491 3.1491 1.25 4.875 1.25H16.125C17.8509 1.25 19.25 2.6491 19.25 4.375V15.625Z" fill="#818181"/>
<path id="Vector_2" d="M6.75 4.375H5.5C5.1548 4.375 4.875 4.6548 4.875 5V6.25C4.875 6.5952 5.1548 6.875 5.5 6.875H6.75C7.0952 6.875 7.375 6.5952 7.375 6.25V5C7.375 4.6548 7.0952 4.375 6.75 4.375Z" fill="#818181"/>
<path id="Vector_3" d="M6.75 8.75H5.5C5.1548 8.75 4.875 9.0298 4.875 9.375V10.625C4.875 10.9702 5.1548 11.25 5.5 11.25H6.75C7.0952 11.25 7.375 10.9702 7.375 10.625V9.375C7.375 9.0298 7.0952 8.75 6.75 8.75Z" fill="#818181"/>
<path id="Vector_4" d="M6.75 13.125H5.5C5.1548 13.125 4.875 13.4048 4.875 13.75V15C4.875 15.3452 5.1548 15.625 5.5 15.625H6.75C7.0952 15.625 7.375 15.3452 7.375 15V13.75C7.375 13.4048 7.0952 13.125 6.75 13.125Z" fill="#818181"/>
<path id="Vector_5" d="M16.125 5H8.625V6.25H16.125V5Z" fill="#818181"/>
<path id="Vector_6" d="M16.125 9.375H8.625V10.625H16.125V9.375Z" fill="#818181"/>
<path id="Vector_7" d="M16.125 13.75H8.625V15H16.125V13.75Z" fill="#818181"/>
</g>
</g>
</g>
</g>
<defs>
<clipPath id="clip0_278_168">
<rect width="20" height="20" fill="white" transform="translate(0.5)"/>
</clipPath>
</defs>
</svg>
