<svg width="21" height="20" viewBox="0 0 21 20" fill="none" xmlns="http://www.w3.org/2000/svg">
<g id="megaphone 1" clip-path="url(#clip0_278_142)">
<g id="Group">
<g id="Group_2">
<path id="Vector" d="M16.5869 0C14.3278 0 13.1087 4.47998 13.1087 8.69563C13.1087 12.9113 14.3278 17.3913 16.5869 17.3913C18.8461 17.3913 20.0652 12.9113 20.0652 8.69563C20.0652 4.47998 18.8461 0 16.5869 0ZM16.5869 16.5217C15.353 16.5217 13.9783 13.3078 13.9783 8.69563C13.9783 4.08346 15.353 0.869551 16.5869 0.869551C17.8209 0.869551 19.1956 4.08346 19.1956 8.69563C19.1956 13.3078 17.8209 16.5217 16.5869 16.5217Z" fill="#818181"/>
</g>
</g>
<g id="Group_3">
<g id="Group_4">
<path id="Vector_2" d="M16.1522 6.08694C15.9122 6.08694 15.7174 6.28173 15.7174 6.52173C15.7174 6.76173 15.9122 6.95653 16.1522 6.95653C16.8713 6.95653 17.4565 7.73653 17.4565 8.69567C17.4565 9.65482 16.8713 10.4348 16.1522 10.4348C15.9122 10.4348 15.7174 10.6296 15.7174 10.8696C15.7174 11.1096 15.9122 11.3044 16.1522 11.3044C17.3513 11.3044 18.3261 10.1339 18.3261 8.69567C18.3261 7.25743 17.3513 6.08694 16.1522 6.08694Z" fill="#818181"/>
</g>
</g>
<g id="Group_5">
<g id="Group_6">
<path id="Vector_3" d="M13.9783 8.69563C13.9783 5.78519 14.5496 3.11217 15.4704 1.71823C15.5861 1.54431 15.5609 1.31303 15.4104 1.16694C15.26 1.02086 15.0261 1.00345 14.8574 1.12345L9.05736 5.21739H4.41303C2.49478 5.21739 0.934784 6.77739 0.934784 8.69563C0.934784 10.6139 2.49478 12.1739 4.41303 12.1739H9.05736L14.8573 16.2678C14.933 16.3208 15.0199 16.3469 15.1078 16.3469C15.2173 16.3469 15.3269 16.3052 15.4104 16.2243C15.5608 16.0791 15.586 15.8478 15.4704 15.673C14.5496 14.2791 13.9783 11.6061 13.9783 8.69563ZM9.44606 11.3835C9.37301 11.3322 9.28607 11.3044 9.19562 11.3044H4.41303C2.97478 11.3044 1.80433 10.1339 1.80433 8.69567C1.80433 7.25743 2.97478 6.08698 4.41303 6.08698H9.19562C9.28607 6.08698 9.37301 6.05914 9.44606 6.00697L13.9982 2.79391C13.4356 4.36871 13.1087 6.47653 13.1087 8.69563C13.1087 10.9147 13.4356 13.0226 13.9982 14.5965L9.44606 11.3835Z" fill="#818181"/>
</g>
</g>
<g id="Group_7">
<g id="Group_8">
<path id="Vector_4" d="M8.85219 15.6748L9.62261 11.8244C9.64784 11.6965 9.61478 11.5643 9.53216 11.4635C9.44954 11.3627 9.32522 11.3044 9.19564 11.3044C7.59044 11.3044 7.02174 9.89914 7.02174 8.69567C7.02174 7.49221 7.59044 6.08698 9.19564 6.08698C9.43564 6.08698 9.63044 5.89218 9.63044 5.65218C9.63044 5.41218 9.43564 5.21739 9.19564 5.21739C7.37477 5.21739 6.15215 6.61479 6.15215 8.69563C6.15215 10.5704 7.14521 11.8904 8.67301 12.133L7.99911 15.5035C7.90866 15.9574 8.04953 16.4243 8.37912 16.7539C8.62519 17.0009 8.76085 17.3278 8.76085 17.6765V17.9748C8.76085 18.3235 8.62519 18.6513 8.37912 18.8982L8.27131 19.006L6.73303 17.9808C6.36957 17.7382 6.15215 17.3321 6.15215 16.8956V13.4782C6.15215 13.3626 6.10605 13.2521 6.02433 13.1704L4.28518 11.4313C4.11562 11.2617 3.83995 11.2617 3.67039 11.4313C3.50082 11.6008 3.50082 11.8765 3.67039 12.0461L5.28256 13.6582V16.8956C5.28256 17.6243 5.64431 18.2999 6.25039 18.7043L8.08515 19.9269C8.15905 19.9765 8.24253 20 8.32601 20C8.43818 20 8.5495 19.9565 8.63383 19.873L8.99383 19.513C9.40434 19.1026 9.63044 18.5565 9.63044 17.9757V17.6774C9.63044 17.0965 9.40434 16.5505 8.99306 16.1383C8.87045 16.0165 8.81828 15.8426 8.85219 15.6748Z" fill="#818181"/>
</g>
</g>
</g>
<defs>
<clipPath id="clip0_278_142">
<rect width="20" height="20" fill="white" transform="translate(0.5)"/>
</clipPath>
</defs>
</svg>
