<svg width="21" height="20" viewBox="0 0 21 20" fill="none" xmlns="http://www.w3.org/2000/svg">
<g id="setting (1)">
<path id="Vector" d="M18.0425 7.5H17.9625C17.8452 7.49896 17.731 7.46264 17.6347 7.39575C17.5384 7.32886 17.4644 7.23451 17.4225 7.125C17.3784 7.01925 17.3667 6.90276 17.3889 6.79035C17.4112 6.67794 17.4664 6.5747 17.5475 6.49375L17.6044 6.43687C17.9472 6.09272 18.1397 5.62672 18.1397 5.14094C18.1397 4.65515 17.9472 4.18916 17.6044 3.845L16.66 2.90125C16.3161 2.55814 15.8502 2.36545 15.3644 2.36545C14.8786 2.36545 14.4126 2.55814 14.0687 2.90125L14.0119 2.95812C13.9281 3.03882 13.8226 3.0933 13.7082 3.11488C13.5939 3.13646 13.4758 3.1242 13.3684 3.0796C13.2609 3.035 13.1688 2.96001 13.1034 2.86382C13.038 2.76764 13.002 2.65444 13 2.53812V2.4575C12.9995 1.97164 12.8063 1.50583 12.4627 1.16228C12.1192 0.818722 11.6534 0.625496 11.1675 0.625H9.8325C9.34664 0.625496 8.88083 0.818722 8.53728 1.16228C8.19372 1.50583 8.0005 1.97164 8 2.4575V2.53812C7.99695 2.65361 7.9605 2.76573 7.89504 2.86092C7.82959 2.9561 7.73794 3.03028 7.6312 3.07445C7.52446 3.11863 7.40721 3.13092 7.29363 3.10983C7.18005 3.08874 7.07502 3.03518 6.99125 2.95563L6.9375 2.89875C6.59361 2.55564 6.12766 2.36295 5.64188 2.36295C5.15609 2.36295 4.69014 2.55564 4.34625 2.89875L3.39875 3.8425C3.05591 4.18666 2.86341 4.65265 2.86341 5.13844C2.86341 5.62422 3.05591 6.09022 3.39875 6.43437L3.45563 6.49125C3.53753 6.57505 3.59236 6.68154 3.61298 6.7969C3.63359 6.91225 3.61906 7.03114 3.57125 7.13812C3.52836 7.24469 3.45467 7.33604 3.35959 7.4005C3.26451 7.46496 3.15237 7.4996 3.0375 7.5H2.9575C2.47164 7.5005 2.00583 7.69372 1.66228 8.03728C1.31872 8.38083 1.1255 8.84664 1.125 9.3325V10.6675C1.1255 11.1534 1.31872 11.6192 1.66228 11.9627C2.00583 12.3063 2.47164 12.4995 2.9575 12.5H3.0375C3.15476 12.501 3.26899 12.5374 3.36531 12.6043C3.46163 12.6711 3.53557 12.7655 3.5775 12.875C3.62164 12.9807 3.63333 13.0972 3.61107 13.2096C3.58881 13.3221 3.53361 13.4253 3.4525 13.5063L3.39562 13.5631C3.05278 13.9073 2.86028 14.3733 2.86028 14.8591C2.86028 15.3448 3.05278 15.8108 3.39562 16.155L4.33938 17.0981C4.68321 17.4416 5.14932 17.6345 5.63531 17.6345C6.1213 17.6345 6.58741 17.4416 6.93125 17.0981L6.98812 17.0413C7.07197 16.9594 7.17846 16.9046 7.29379 16.884C7.40913 16.8634 7.528 16.8779 7.635 16.9256C7.74156 16.9683 7.83294 17.0419 7.89741 17.1369C7.96189 17.2319 7.99652 17.3439 7.99687 17.4587V17.5394C7.99671 17.7805 8.04408 18.0193 8.13627 18.242C8.22846 18.4648 8.36366 18.6672 8.53415 18.8377C8.70464 19.0082 8.90706 19.1434 9.12984 19.2356C9.35262 19.3278 9.5914 19.3752 9.8325 19.375H11.1675C11.6534 19.3745 12.1192 19.1813 12.4627 18.8377C12.8063 18.4942 12.9995 18.0284 13 17.5425V17.4619C13.003 17.3464 13.0395 17.2343 13.105 17.1391C13.1704 17.0439 13.2621 16.9697 13.3688 16.9255C13.4755 16.8814 13.5928 16.8691 13.7064 16.8902C13.82 16.9113 13.925 16.9648 14.0087 17.0444L14.0656 17.1012C14.4095 17.4444 14.8755 17.6371 15.3612 17.6371C15.847 17.6371 16.313 17.4444 16.6569 17.1012L17.6012 16.1581C17.9441 15.814 18.1366 15.348 18.1366 14.8622C18.1366 14.3764 17.9441 13.9104 17.6012 13.5662L17.5444 13.5094C17.4625 13.4256 17.4076 13.3191 17.387 13.2037C17.3664 13.0884 17.3809 12.9695 17.4288 12.8625C17.4715 12.7558 17.5452 12.6643 17.6403 12.5998C17.7354 12.5352 17.8476 12.5004 17.9625 12.5H18.0425C18.5284 12.4995 18.9942 12.3063 19.3377 11.9627C19.6813 11.6192 19.8745 11.1534 19.875 10.6675V9.3325C19.8745 8.84664 19.6813 8.38083 19.3377 8.03728C18.9942 7.69372 18.5284 7.5005 18.0425 7.5ZM18.625 10.6675C18.6248 10.8219 18.5634 10.97 18.4542 11.0792C18.345 11.1884 18.1969 11.2498 18.0425 11.25H17.9625C17.5998 11.2531 17.246 11.3629 16.9453 11.5656C16.6446 11.7684 16.4102 12.0552 16.2714 12.3903C16.1326 12.7254 16.0955 13.094 16.1647 13.45C16.2339 13.806 16.4064 14.1338 16.6606 14.3925L16.7169 14.4494C16.826 14.5588 16.8873 14.707 16.8873 14.8616C16.8873 15.0161 16.826 15.1643 16.7169 15.2738L15.7725 16.2169C15.6633 16.3261 15.5151 16.3875 15.3606 16.3875C15.2061 16.3875 15.058 16.3261 14.9487 16.2169L14.8925 16.16C14.6337 15.906 14.3059 15.7338 13.95 15.6648C13.5941 15.5957 13.2257 15.6329 12.8907 15.7717C12.5557 15.9104 12.269 16.1447 12.0662 16.4452C11.8633 16.7458 11.7534 17.0993 11.75 17.4619V17.5425C11.7498 17.6969 11.6884 17.845 11.5792 17.9542C11.47 18.0634 11.3219 18.1248 11.1675 18.125H9.8325C9.67806 18.1248 9.53 18.0634 9.42079 17.9542C9.31159 17.845 9.25016 17.6969 9.25 17.5425V17.4619C9.24824 17.0986 9.13923 16.7439 8.93665 16.4423C8.73406 16.1407 8.44693 15.9057 8.11127 15.7667C7.7756 15.6277 7.40637 15.591 7.04989 15.6611C6.69342 15.7311 6.36557 15.9049 6.1075 16.1606L6.05062 16.2175C5.94122 16.3264 5.79313 16.3876 5.63875 16.3876C5.48437 16.3876 5.33628 16.3264 5.22688 16.2175L4.28312 15.2744C4.17401 15.1649 4.11273 15.0167 4.11273 14.8622C4.11273 14.7077 4.17401 14.5594 4.28312 14.45L4.34 14.3931C4.5945 14.1344 4.76718 13.8065 4.83649 13.4503C4.90581 13.0941 4.86869 12.7254 4.72977 12.3902C4.59084 12.0549 4.35627 11.768 4.05532 11.5653C3.75437 11.3625 3.40037 11.2528 3.0375 11.25H2.9575C2.80306 11.2498 2.655 11.1884 2.54579 11.0792C2.43659 10.97 2.37517 10.8219 2.375 10.6675V9.3325C2.37517 9.17806 2.43659 9.03 2.54579 8.92079C2.655 8.81159 2.80306 8.75016 2.9575 8.75H3.0375C3.40019 8.74691 3.75395 8.63714 4.05468 8.43436C4.3554 8.23157 4.58979 7.94476 4.72861 7.60967C4.86743 7.27458 4.90454 6.90604 4.83533 6.55C4.76611 6.19396 4.59363 5.86617 4.33938 5.6075L4.28312 5.55062C4.17405 5.4413 4.11279 5.29318 4.11279 5.13875C4.11279 4.98432 4.17405 4.83619 4.28312 4.72688L5.22688 3.7825C5.33611 3.67327 5.48427 3.6119 5.63875 3.6119C5.79323 3.6119 5.94139 3.67327 6.05062 3.7825L6.10687 3.83938C6.36559 4.0935 6.69336 4.2659 7.04935 4.33509C7.40534 4.40428 7.77382 4.36721 8.10889 4.22849C8.44396 4.08977 8.73082 3.85554 8.93372 3.55496C9.13663 3.25439 9.24662 2.90076 9.25 2.53812V2.4575C9.25016 2.30306 9.31159 2.155 9.42079 2.04579C9.53 1.93659 9.67806 1.87517 9.8325 1.875H11.1675C11.3219 1.87517 11.47 1.93659 11.5792 2.04579C11.6884 2.155 11.7498 2.30306 11.75 2.4575V2.53812C11.7532 2.90076 11.8631 3.25444 12.0659 3.55507C12.2687 3.8557 12.5555 4.08999 12.8906 4.22873C13.2257 4.36748 13.5942 4.40454 13.9501 4.3353C14.3061 4.26607 14.6339 4.09359 14.8925 3.83938L14.9494 3.7825C15.0586 3.67327 15.2068 3.6119 15.3612 3.6119C15.5157 3.6119 15.6639 3.67327 15.7731 3.7825L16.7169 4.72688C16.826 4.83619 16.8872 4.98432 16.8872 5.13875C16.8872 5.29318 16.826 5.4413 16.7169 5.55062L16.66 5.6075C16.4057 5.86621 16.2332 6.19406 16.164 6.55016C16.0948 6.90625 16.132 7.27484 16.2709 7.60996C16.4098 7.94507 16.6443 8.23188 16.9451 8.43461C17.2459 8.63735 17.5998 8.74704 17.9625 8.75H18.0425C18.1969 8.75016 18.345 8.81159 18.4542 8.92079C18.5634 9.03 18.6248 9.17806 18.625 9.3325V10.6675Z" fill="#818181"/>
<path id="Vector_2" d="M10.5 5.625C9.63471 5.625 8.78885 5.88159 8.06938 6.36232C7.34992 6.84305 6.78916 7.52633 6.45803 8.32576C6.1269 9.12519 6.04026 10.0049 6.20907 10.8535C6.37788 11.7022 6.79456 12.4817 7.40641 13.0936C8.01826 13.7054 8.79781 14.1221 9.64648 14.2909C10.4951 14.4597 11.3748 14.3731 12.1742 14.042C12.9737 13.7108 13.657 13.1501 14.1377 12.4306C14.6184 11.7112 14.875 10.8653 14.875 10C14.8737 8.84008 14.4123 7.72806 13.5921 6.90787C12.7719 6.08768 11.6599 5.62632 10.5 5.625ZM10.5 13.125C9.88194 13.125 9.27775 12.9417 8.76384 12.5983C8.24994 12.255 7.8494 11.7669 7.61288 11.1959C7.37635 10.6249 7.31447 9.99653 7.43505 9.39034C7.55563 8.78415 7.85325 8.22733 8.29029 7.79029C8.72733 7.35325 9.28415 7.05562 9.89034 6.93505C10.4965 6.81447 11.1249 6.87635 11.6959 7.11288C12.2669 7.3494 12.755 7.74994 13.0983 8.26384C13.4417 8.77775 13.625 9.38193 13.625 10C13.624 10.8285 13.2945 11.6228 12.7086 12.2086C12.1228 12.7945 11.3285 13.124 10.5 13.125Z" fill="#818181"/>
</g>
</svg>
