<svg width="20" height="21" viewBox="0 0 20 21" fill="none" xmlns="http://www.w3.org/2000/svg">
<g id="traverser 1">
<path id="Vector" d="M16.7175 16.3294L10.8844 10.5L16.7138 4.66692C16.9581 4.42254 16.9581 4.02692 16.7138 3.78254C16.4694 3.53879 16.0744 3.53879 15.83 3.78254L10 9.61629L4.16627 3.78567C3.9219 3.54192 3.5269 3.54192 3.28252 3.78567C3.03815 4.02942 3.03815 4.42567 3.28252 4.67004L9.11627 10.5L3.2869 16.3332C3.04252 16.5775 3.04252 16.9732 3.2869 17.2169C3.40877 17.3388 3.56877 17.4 3.72877 17.4C3.88877 17.4 4.04877 17.3388 4.17065 17.2169L10.0006 11.3832L15.8338 17.2125C15.9556 17.3344 16.1157 17.3957 16.2757 17.3957C16.4356 17.3957 16.5956 17.3344 16.7175 17.2125C16.9619 16.9694 16.9619 16.5732 16.7175 16.3294Z" fill="#04291F"/>
</g>
</svg>
